<?xml version="1.0" standalone="no"?>
<!DOCTYPE svg PUBLIC "-//W3C//DTD SVG 20010904//EN"
 "http://www.w3.org/TR/2001/REC-SVG-20010904/DTD/svg10.dtd">
<svg version="1.0" xmlns="http://www.w3.org/2000/svg"
 width="92.000000pt" height="105.000000pt" viewBox="0 0 92.000000 105.000000"
 preserveAspectRatio="xMidYMid meet">

<g transform="translate(0.000000,105.000000) scale(0.100000,-0.100000)"
fill="#000000" stroke="none">
<path d="M309 997 c-85 -36 -143 -88 -182 -163 -37 -73 -39 -212 -4 -281 14
-26 73 -95 156 -183 52 -54 93 -120 116 -183 12 -32 25 -59 29 -60 4 -1 16 22
26 51 30 84 61 129 169 245 120 131 136 165 129 292 -5 92 -29 145 -95 212
-86 86 -235 116 -344 70z m221 -73 c148 -62 196 -266 94 -399 -37 -49 -133
-95 -199 -95 -99 0 -201 70 -241 165 -18 44 -18 146 0 189 18 42 80 113 117
132 69 35 156 38 229 8z"/>
<path d="M345 748 c-83 -49 -80 -47 -73 -54 3 -3 37 14 74 37 38 23 74 42 79
42 6 0 41 -19 78 -43 37 -23 71 -40 74 -36 3 3 4 8 2 10 -15 12 -147 86 -155
86 -5 0 -40 -19 -79 -42z"/>
<path d="M310 640 c0 -27 5 -50 10 -50 6 0 10 5 10 10 0 15 187 13 193 -2 3
-7 5 7 5 32 0 25 -3 35 -5 23 -4 -22 -9 -23 -99 -23 l-94 0 0 30 c0 17 -4 30
-10 30 -5 0 -10 -22 -10 -50z"/>
<path d="M350 675 c0 -9 5 -15 11 -13 6 2 11 8 11 13 0 5 -5 11 -11 13 -6 2
-11 -4 -11 -13z"/>
<path d="M390 661 c0 -19 6 -21 60 -21 47 0 60 3 60 15 0 11 -11 15 -37 15
-21 0 -48 3 -60 6 -19 5 -23 2 -23 -15z"/>
<path d="M348 643 c6 -2 18 -2 25 0 6 3 1 5 -13 5 -14 0 -19 -2 -12 -5z"/>
</g>
</svg>
